<svg width="41" height="40" viewBox="0 0 41 40" fill="none" xmlns="http://www.w3.org/2000/svg">
<path d="M18.014 36.0098C21.6634 36.0132 25.2268 34.9013 28.2267 32.8231L34.4602 39.0565C35.7357 40.3191 37.7917 40.3138 39.0608 39.0447C40.3299 37.7756 40.3351 35.7197 39.0726 34.4441L32.8391 28.2106C37.5336 21.3875 36.9678 12.2418 31.4681 6.04938C25.9684 -0.143081 16.9535 -1.7848 9.62368 2.07123C2.2939 5.92725 -1.45976 14.2862 0.527933 22.3263C2.51562 30.3664 9.7318 36.0134 18.014 36.0098ZM38.1292 35.3874C38.8805 36.1404 38.8805 37.3595 38.1292 38.1125C37.3669 38.8415 36.1658 38.8415 35.4034 38.1125L29.3061 32.0151C30.3088 31.2058 31.2226 30.2921 32.0319 29.2894L38.1292 35.3874ZM18.014 1.32033C27.2248 1.32033 34.6917 8.78718 34.6917 17.9979C34.6917 27.2087 27.2248 34.6756 18.014 34.6756C8.80319 34.6756 1.33633 27.2087 1.33633 17.998C1.34664 8.79141 8.80742 1.33064 18.014 1.32033Z" fill="#FE6809"/>
<path d="M18.0144 33.3414C26.4883 33.3414 33.3578 26.4719 33.3578 17.998C33.3578 9.52409 26.4883 2.65454 18.0144 2.65454C9.54044 2.65454 2.6709 9.52402 2.6709 17.998C2.68048 26.468 9.54434 33.3318 18.0144 33.3414ZM11.3433 30.3141C10.8832 30.0606 10.4378 29.7816 10.0091 29.4782V27.3374H11.3433V30.3141ZM16.6802 31.9405C16.2285 31.8971 15.7843 31.8311 15.346 31.7457V26.6703H16.6802V31.9405ZM22.017 31.4182C21.5807 31.5485 21.1359 31.6577 20.6828 31.7457V22.0006H22.017V31.4182ZM27.3538 28.4108C26.9311 28.7933 26.4856 29.1497 26.0196 29.4782V19.9993H27.3538V28.4108ZM18.0144 3.98874C23.4728 3.9824 28.4368 7.1507 30.7295 12.1043C33.0223 17.058 32.2253 22.8926 28.688 27.0499V19.9993C28.688 19.2624 28.0907 18.6651 27.3538 18.6651H26.0196C25.2828 18.6651 24.6854 19.2625 24.6854 19.9993V30.3141C24.2522 30.548 23.8069 30.7586 23.3512 30.9452V22.0006C23.3512 21.2637 22.7539 20.6664 22.017 20.6664H20.6828C19.9459 20.6664 19.3486 21.2638 19.3486 22.0006V31.9405C18.909 31.9818 18.4647 32.0071 18.0144 32.0071V26.6703C18.0144 25.9334 17.417 25.3361 16.6802 25.3361H15.346C14.6091 25.3361 14.0118 25.9335 14.0118 26.6703V31.4174C13.5594 31.2826 13.1141 31.125 12.6776 30.9451V27.3374C12.6776 26.6005 12.0802 26.0032 11.3434 26.0032H10.0092C9.27232 26.0032 8.67501 26.6005 8.67501 27.3374V28.4101C8.18152 27.9715 7.71943 27.4989 7.2921 26.9958L11.3434 22.9458L12.3988 24.0019C12.9286 24.5056 13.7603 24.5056 14.2901 24.0019L20.6829 17.609L21.4027 18.3295C21.9324 18.8333 22.7642 18.8333 23.2939 18.3295L26.6868 14.9386V15.9966C26.6868 16.3651 26.9855 16.6637 27.3539 16.6637C27.7224 16.6637 28.021 16.3651 28.021 15.9966V13.3282C28.021 12.9598 27.7224 12.6611 27.3539 12.6611H24.6855C24.3171 12.6611 24.0184 12.9598 24.0184 13.3282C24.0184 13.6967 24.3171 13.9953 24.6855 13.9953H25.7429L22.3507 17.3862L21.6288 16.6637C21.0991 16.1599 20.2673 16.1599 19.7376 16.6637L13.3447 23.0566L12.2893 22.0005C11.7596 21.4968 10.9278 21.4968 10.3981 22.0005L6.47352 25.9251C3.52219 21.6406 3.19089 16.0727 5.61318 11.4684C8.03547 6.86414 12.8117 3.98339 18.0144 3.98874Z" fill="#FE6809"/>
<path d="M11.3425 15.9966C11.3425 15.6282 11.0438 15.3295 10.6754 15.3295C10.3069 15.3295 10.0083 15.6282 10.0083 15.9966C10.0102 17.5811 11.1247 18.9463 12.6767 19.2655V19.3322C12.6767 19.7006 12.9753 19.9993 13.3438 19.9993C13.7122 19.9993 14.0109 19.7006 14.0109 19.3322V19.2655C15.5654 18.9498 16.6826 17.583 16.6826 15.9966C16.6826 14.4103 15.5655 13.0435 14.0109 12.7278V8.78126C14.8076 9.06293 15.3416 9.81476 15.3451 10.6598C15.3451 11.0283 15.6437 11.3269 16.0122 11.3269C16.3806 11.3269 16.6793 11.0283 16.6793 10.6598C16.6773 9.07542 15.5628 7.71016 14.0109 7.39101V7.32433C14.0109 6.95588 13.7122 6.65723 13.3438 6.65723C12.9753 6.65723 12.6767 6.95588 12.6767 7.32433V7.39101C11.1221 7.70665 10.0049 9.0735 10.0049 10.6598C10.0049 12.2462 11.122 13.613 12.6767 13.9287V17.876C11.8797 17.5941 11.3457 16.842 11.3425 15.9966ZM15.3451 15.9966C15.3416 16.8417 14.8077 17.5936 14.0109 17.8752V14.1181C14.8076 14.3998 15.3416 15.1516 15.3451 15.9966ZM11.3425 10.6598C11.346 9.81476 11.8799 9.06293 12.6767 8.78126V12.5384C11.8799 12.2567 11.346 11.5049 11.3425 10.6598Z" fill="#FE6809"/>
</svg>
